# xmcd
#
# Track frame offsets:
#	150
#	22568
#	41237
#	57324
#	74403
#	85897
#	103213
#	116643
#	128904
#	146830
#	162158
#	177901
#	196339
#	210551
#
# Disc length: 3040 seconds
#
# Revision: 1
# Processed by: cddbd v1.5.2PL0 Copyright (c) Steve Scherf et al.
# Submitted via: audiograbber 1.83.01
#
DISCID=c90bde0e
DTITLE=Kyla Brox - Throw Away Your Blues
DYEAR=2016
DGENRE=Blues
TTITLE0=If You See Him
TTITLE1=Lifting The Blues
TTITLE2=Beautiful Day
TTITLE3=When We're Alone
TTITLE4=Choose Me
TTITLE5=Road Home
TTITLE6=Run Our Home
TTITLE7=Ain't Got Time
TTITLE8=Change Your Mind
TTITLE9=Song For The Lonely
TTITLE10=Lovin' Your Blues
TTITLE11=Honestly Blues
TTITLE12=365
TTITLE13=I Will Love You More
EXTD=
EXTT0=
EXTT1=
EXTT2=
EXTT3=
EXTT4=
EXTT5=
EXTT6=
EXTT7=
EXTT8=
EXTT9=
EXTT10=
EXTT11=
EXTT12=
EXTT13=
PLAYORDER=
